<?xml version="1.0" encoding="utf-8"?>
<!-- Generator: Adobe Illustrator 22.1.0, SVG Export Plug-In . SVG Version: 6.00 Build 0)  -->
<svg version="1.1" id="Layer_1" xmlns="http://www.w3.org/2000/svg" xmlns:xlink="http://www.w3.org/1999/xlink" x="0px" y="0px"
	 viewBox="0 0 661.7 647.6" style="enable-background:new 0 0 661.7 647.6;" xml:space="preserve">
<style type="text/css">
	.st0{fill:#FF4500;}
	.st1{opacity:0.7;fill:#FFFFFF;enable-background:new    ;}
	.st2{fill:none;stroke:#263238;stroke-width:1.103;stroke-linecap:round;stroke-linejoin:round;stroke-dasharray:4.412;}
	.st3{opacity:0.5;fill:#FFFFFF;enable-background:new    ;}
	.st4{fill:#FFFFFF;stroke:#263238;stroke-width:1.103;stroke-linecap:round;stroke-linejoin:round;}
	.st5{fill:#263238;}
	.st6{opacity:0.2;fill:#FFFFFF;enable-background:new    ;}
	.st7{fill:#FF4500;stroke:#263238;stroke-width:1.103;stroke-miterlimit:10;}
	.st8{fill:none;stroke:#263238;stroke-width:1.103;stroke-miterlimit:10;}
	.st9{opacity:0.2;enable-background:new    ;}
	.st10{fill:#FFFFFF;stroke:#222221;stroke-width:1.103;stroke-miterlimit:10;}
	.st11{fill:none;stroke:#263238;stroke-width:1.103;stroke-linecap:round;stroke-linejoin:round;}
	.st12{fill:#FFFFFF;}
	.st13{fill:none;stroke:#263238;stroke-width:2.206;stroke-linecap:round;stroke-linejoin:round;}
	
		.st14{opacity:0.2;fill:none;stroke:#FFFFFF;stroke-width:1.103;stroke-linecap:round;stroke-linejoin:round;enable-background:new    ;}
	.st15{fill:none;stroke:#FFFFFF;stroke-width:1.103;stroke-linecap:round;stroke-linejoin:round;}
</style>
<g id="Larevel_Development_Illustration" transform="translate(-30.46 -42.392)">
	<g id="freepik--background-simple--inject-2" transform="translate(30.46 42.392)">
		<path id="Path_4856" class="st0" d="M642.1,251.2c-73.4-125.8-272.7-81-313.4-142.2c-20.8-31.3-44.2-67.6-78-86.5
			c-32.2-18.1-69.6-24.4-102.2-22C32.2,9-17.1,113.1,5.2,227.4c29.8,152.5,165,308.2,325.6,309.3c84,0.6,164.3-29.5,227.1-71.9
			l1.4-0.9C622.2,421.1,698.2,347.3,642.1,251.2z"/>
		<path id="Path_4857" class="st1" d="M642.1,251.2c-73.4-125.8-272.7-81-313.4-142.2c-20.8-31.3-44.2-67.6-78-86.5
			c-32.2-18.1-69.6-24.4-102.2-22C32.2,9-17.1,113.1,5.2,227.4c29.8,152.5,165,308.2,325.6,309.3c84,0.6,164.3-29.5,227.1-71.9
			l1.4-0.9C622.2,421.1,698.2,347.3,642.1,251.2z"/>
	</g>
	<g id="freepik--Lines--inject-2" transform="translate(61.171 75.601)">
		<path id="Path_4858" class="st2" d="M41.2,227.2H33c-18.3,0-33,14.8-33,33l0,0v181.3c0,18.3,14.8,33,33,33h112.1
			c18.3,0,33-14.8,33-33l0,0"/>
		<path id="Path_4859" class="st2" d="M169,56.1V20.2C169,9.1,178,0,189.2,0h145.7c11.2,0,20.2,9.1,20.2,20.2l0,0l0,0"/>
	</g>
	<g id="freepik--Shadow--inject-2" transform="translate(72.684 609.363)">
		<ellipse id="Ellipse_66" class="st0" cx="288.6" cy="40.3" rx="288.6" ry="40.3"/>
		<ellipse id="Ellipse_67" class="st3" cx="288.6" cy="40.3" rx="288.6" ry="40.3"/>
	</g>
	<g id="freepik--Window--inject-2" transform="translate(89.229 146.26)">
		<path id="Path_4860" class="st4" d="M544.1,33.5v271.3c0,18.5-15,33.4-33.4,33.5H33.4C15,338.2,0,323.3,0,304.8V33.5
			c0-0.8,0-1.6,0.1-2.4C1.3,13.6,15.9,0,33.4,0h477.2c17.6,0,32.1,13.6,33.3,31.2C544.1,31.9,544.1,32.7,544.1,33.5z"/>
		<path id="Path_4861" class="st5" d="M16.3,43.6h513.3v250.6c0,17.3-14,31.3-31.3,31.3H47.6c-17.3,0-31.3-14-31.3-31.3L16.3,43.6
			L16.3,43.6z"/>
		<path id="Path_4862" class="st6" d="M529.6,43.6v250.6c0.1,17.2-13.8,31.2-31,31.3H47.3c-17.2-0.1-31.1-14.1-31-31.3V43.6H529.6z"
			/>
		<path id="Path_4863" class="st7" d="M544,31.2H0.1C1.3,13.7,15.9,0.1,33.4,0.1h477.2C528.2,0.1,542.8,13.7,544,31.2z"/>
		<path id="Path_4864" class="st5" d="M66.9,15.6c0,3.3-2.7,5.9-5.9,5.9c-3.3,0-5.9-2.7-5.9-5.9s2.7-5.9,5.9-5.9h0
			C64.3,9.6,66.9,12.3,66.9,15.6z"/>
		<path id="Path_4865" class="st5" d="M92,15.6c0,3.3-2.7,5.9-5.9,5.9s-5.9-2.7-5.9-5.9s2.7-5.9,5.9-5.9l0,0
			C89.3,9.6,92,12.3,92,15.6z"/>
		<circle id="Ellipse_68" class="st5" cx="111.1" cy="15.6" r="5.9"/>
		<path id="Path_4866" class="st8" d="M529.5,43.6v250.6c0,17.3-14,31.3-31.3,31.3H47.6c-15,0-27.8-10.6-30.7-25.3v-0.1
			c-0.4-2-0.6-4-0.6-6V43.6H529.5z"/>
		<path id="Path_4867" class="st5" d="M529.1,82.4c-2.2-1.2-4.5-2.2-7-2.9l-2.8-12.6h-12l-2.8,12.6c-2.4,0.7-4.8,1.6-7,2.9
			l-10.8-6.9l-8.5,8.4l6.8,10.8c-1.2,2.2-2.2,4.6-2.9,7l-12.6,2.8v12l12.6,2.8c0.7,2.5,1.6,4.8,2.9,7l-6.9,10.9l8.5,8.5l10.9-6.9
			c2.2,1.2,4.5,2.2,7,2.9l2.8,12.6h11.9l2.8-12.6c2.4-0.7,4.8-1.7,7-2.9l0.6,0.4v-57L529.1,82.4z M513.3,126.1
			c-8.5,0-15.5-6.9-15.5-15.5c0-8.5,6.9-15.5,15.5-15.5s15.5,6.9,15.5,15.5c0,0,0,0,0,0C528.8,119.2,521.9,126.1,513.3,126.1z"/>
		<path id="Path_4868" class="st5" d="M313.4,94.5V69.3l-26.5-5.9c-1.4-5.1-3.5-10.1-6-14.7l3.2-5H158.9l3.1,4.9
			c-2.6,4.6-4.6,9.6-6,14.7l-26.5,5.9v25.3l26.5,5.9c1.4,5.2,3.4,10.1,6,14.8l-14.6,22.9l17.9,17.8l22.9-14.6
			c4.6,2.6,9.6,4.7,14.7,6.1l5.9,26.4h25.2l5.9-26.5c5.1-1.4,10-3.5,14.7-6.1l22.9,14.6l17.8-17.8l-14.5-22.9
			c2.6-4.6,4.6-9.6,6-14.7L313.4,94.5z M221.5,114.5c-18,0-32.6-14.6-32.6-32.6s14.6-32.6,32.6-32.6s32.6,14.6,32.6,32.6
			S239.5,114.5,221.5,114.5L221.5,114.5z"/>
		<path id="Path_4870" class="st5" d="M306.1,237.9c0.8-3.1,1.2-6.3,1.2-9.5l14.4-7.5l-4-14.6l-16.2,0.8c-1.6-2.7-3.6-5.3-5.8-7.5
			l4.8-15.5l-13.1-7.5l-11,12c-3.1-0.7-6.3-1.2-9.4-1.2l-7.5-14.4l-14.6,4l0.8,16.3c-2.7,1.6-5.3,3.6-7.5,5.8l-15.6-4.8l-7.5,13.1
			l12.1,11c-0.8,3.1-1.2,6.3-1.2,9.4l-14.4,7.5l4,14.6l16.3-0.8c1.6,2.7,3.6,5.3,5.8,7.5l-4.8,15.5l13.1,7.5l10.9-11.9
			c3.1,0.8,6.3,1.2,9.5,1.2l7.5,14.4l14.6-4l-0.6-13.9l-0.1-2.4c2.8-1.6,5.3-3.6,7.6-5.8l15.5,4.8l6.4-11.2l1.1-1.9L306.1,237.9z
			 M271.6,246.8c-10.4,2.9-21.2-3.2-24.1-13.7c-2.9-10.4,3.2-21.2,13.7-24.1c10.4-2.9,21.2,3.2,24.1,13.7c0,0,0,0.1,0,0.1
			C288.2,233.2,282,243.9,271.6,246.8z"/>
		<path id="Path_4871" class="st5" d="M473,263.6l3.3-20l-20.3-8.2c-0.5-4.3-1.4-8.5-2.9-12.5l14.6-16.3L455.9,190l-20.1,8.5
			c-3.3-2.7-7-4.9-10.9-6.8l-1.2-21.8l-20-3.3l-8.2,20.2c-4.3,0.5-8.4,1.5-12.5,2.9l-16.3-14.6L350.2,187l8.6,20.1
			c-2.4,2.9-4.4,6.1-6.1,9.5c-0.2,0.5-0.5,0.9-0.7,1.4l-21.8,1.2l-3.3,20l3.3,1.3l17,6.9c0.5,4.3,1.4,8.4,2.9,12.4l-14.6,16.4
			l11.8,16.6l20.1-8.6c3.3,2.7,7,5,10.9,6.8l1.1,21.7l20,3.3l8.2-20c4.3-0.5,8.5-1.4,12.5-2.9l16.3,14.6l16.6-11.8l-8.6-20.1
			c2.7-3.3,5-7,6.9-10.9L473,263.6z M416.7,262.7c10.4,0,18.8-8.4,18.8-18.8c0-10.4-8.4-18.8-18.8-18.8c-10.4,0-18.8,8.4-18.8,18.8
			C397.9,254.3,406.3,262.7,416.7,262.7L416.7,262.7z"/>
	</g>
	<g id="freepik--Graphics--inject-2" transform="translate(113.234 106.071)">
		<path id="Rectangle_1496" class="st7" d="M13.1,155.4H184c7.2,0,13.1,5.9,13.1,13.1V400c0,7.2-5.9,13.1-13.1,13.1H13.1
			C5.9,413.1,0,407.2,0,400V168.5C0,161.3,5.9,155.4,13.1,155.4z"/>
		<path id="Rectangle_1497" class="st9" d="M13.1,155.4H184c7.2,0,13.1,5.9,13.1,13.1V400c0,7.2-5.9,13.1-13.1,13.1H13.1
			C5.9,413.1,0,407.2,0,400V168.5C0,161.3,5.9,155.4,13.1,155.4z"/>
		<path id="Path_4872" class="st4" d="M215.4,194.6v218.2c0,10.9-8.8,19.8-19.7,19.8c0,0,0,0,0,0H38.1c-10.9,0-19.7-8.9-19.7-19.8
			V194.6c0-10.9,8.8-19.7,19.7-19.8h157.6C206.6,174.9,215.4,183.7,215.4,194.6C215.4,194.6,215.4,194.6,215.4,194.6z"/>
		<path id="Path_4873" class="st7" d="M215.4,194.6v11.7H18.4v-11.7c0-10.9,8.8-19.7,19.7-19.8h157.6
			C206.6,174.9,215.4,183.7,215.4,194.6C215.4,194.6,215.4,194.6,215.4,194.6z"/>
		<rect id="Rectangle_1498" x="36.9" y="219.8" class="st0" width="48.5" height="8.1"/>
		<rect id="Rectangle_1499" x="36.9" y="292.7" class="st0" width="48.5" height="8.1"/>
		<rect id="Rectangle_1500" x="36.9" y="358.9" class="st0" width="48.5" height="8.1"/>
		<rect id="Rectangle_1501" x="36.9" y="240" class="st5" width="137.7" height="6"/>
		<rect id="Rectangle_1502" x="36.9" y="251.4" class="st5" width="112.9" height="5.8"/>
		<rect id="Rectangle_1503" x="36.9" y="262.6" class="st5" width="127.7" height="5.8"/>
		<rect id="Rectangle_1504" x="36.9" y="273.8" class="st5" width="127.7" height="5.8"/>
		<rect id="Rectangle_1505" x="36.9" y="306.1" class="st5" width="137.7" height="6"/>
		<rect id="Rectangle_1506" x="36.9" y="317.5" class="st5" width="112.9" height="5.8"/>
		<rect id="Rectangle_1507" x="36.9" y="328.7" class="st5" width="127.7" height="5.8"/>
		<rect id="Rectangle_1508" x="36.9" y="378.7" class="st5" width="137.7" height="6"/>
		<rect id="Rectangle_1509" x="36.9" y="390.1" class="st5" width="112.9" height="5.8"/>
		<rect id="Rectangle_1510" x="36.9" y="401.4" class="st5" width="127.7" height="5.8"/>
		<path id="Path_4874" class="st10" d="M437.6,23.6v88.2c0,13-10.5,23.6-23.6,23.6c0,0,0,0,0,0H210.9c-13,0-23.6-10.5-23.6-23.5
			c0,0,0,0,0,0V23.6c0-13,10.6-23.6,23.6-23.6H414C427,0,437.6,10.6,437.6,23.6L437.6,23.6z"/>
		<path id="Path_4875" class="st7" d="M437.6,23.6v2H187.3v-2c0-13,10.6-23.6,23.6-23.6H414C427,0,437.6,10.6,437.6,23.6L437.6,23.6
			z"/>
		<path id="Path_4876" class="st5" d="M224.1,17c-1.4,1.4-3.7,1.4-5.1,0c-1.4-1.4-1.4-3.7,0-5.1s3.7-1.4,5.1,0c0,0,0,0,0,0
			C225.5,13.3,225.5,15.6,224.1,17z"/>
		<path id="Path_4877" class="st5" d="M240.9,17c-1.4,1.4-3.7,1.4-5.1,0c-1.4-1.4-1.4-3.7,0-5.1s3.7-1.4,5.1,0c0,0,0,0,0,0
			C242.3,13.3,242.3,15.6,240.9,17z"/>
		<path id="Path_4878" class="st5" d="M257.6,17c-1.4,1.4-3.7,1.4-5.1,0c-1.4-1.4-1.4-3.7,0-5.1s3.7-1.4,5.1,0c0,0,0,0,0,0
			C259,13.3,259,15.6,257.6,17z"/>
		<rect id="Rectangle_1511" x="203.3" y="41.8" class="st2" width="81.8" height="70.7"/>
		<rect id="Rectangle_1512" x="297.7" y="41.8" class="st5" width="94.1" height="5"/>
		<rect id="Rectangle_1513" x="297.7" y="52.1" class="st5" width="72.2" height="5"/>
		<rect id="Rectangle_1514" x="297.7" y="62.3" class="st5" width="107.5" height="5"/>
		<rect id="Rectangle_1515" x="297.7" y="72.3" class="st5" width="91.6" height="5"/>
		<path id="Rectangle_1516" class="st4" d="M395.1,242.4h52.7c3.6,0,6.5,2.9,6.5,6.5v33.6c0,3.6-2.9,6.5-6.5,6.5h-52.7
			c-3.6,0-6.5-2.9-6.5-6.5V249C388.5,245.4,391.5,242.4,395.1,242.4z"/>
		<path id="Path_4879" class="st11" d="M409.7,256.5l-12.6,7.9l11.7,10.4"/>
		<path id="Path_4880" class="st11" d="M432.8,275.6l11.4-9.7l-13.1-8.6"/>
		<line id="Line_31" class="st11" x1="415.9" y1="281.5" x2="425.2" y2="252.3"/>
	</g>
	<g id="freepik--Character--inject-2" transform="translate(328.672 291.847)">
		<path id="Path_4881" class="st0" d="M103.2,350.4c0,0-43.7,12.5-49.8,14.7c-5.5,2-20.6,7.2-31.9,5.6c-1.1-0.2-2.2-0.4-3.2-0.7
			c-11.4-3.4-16.6-6.6-18.1-13.8s4.2-12.5,9.7-15.9s35.2-6.9,35.2-6.9l7.2,2.1l0,0L103.2,350.4z"/>
		<path id="Path_4882" class="st12" d="M21.6,370.7c-1.1-0.2-2.2-0.4-3.2-0.7c-11.4-3.4-16.6-6.6-18.1-13.8s4.2-12.5,9.7-15.9
			s35.2-6.9,35.2-6.9l7.2,2.1c-6.5,3-30.7,4.7-36,7.7s-7.8,8.8-4.7,16.6C13.3,363.9,17.7,367.9,21.6,370.7z"/>
		<path id="Path_4883" class="st11" d="M96.7,352.2c0,0-32.8,8.5-45.8,13.9S13,374,4.1,362.7s-1-20.9,7.8-23s26.7-5.5,36.5-4.2"/>
		<path id="Path_4884" class="st11" d="M22.2,370.1c0,0-16.7-9.2-11.2-22c4.1-9.5,26.4-7.4,37.4-12.6"/>
		<path id="Path_4885" class="st0" d="M236.3,372.7c-0.5,4.5-2,8.8-6.6,11.4c-3,1.8-7.3,2.8-13.4,2.8c-15.3-0.2-44.1-11.2-44.1-11.2
			l-27-14.9l14-22.2l3.8-6l9.9,2.2c0,0,8.2,4.7,16.5,8.4s28.3,4.5,35.4,10.2S237.1,365.3,236.3,372.7z"/>
		<path id="Path_4886" class="st12" d="M236.3,372.7c-0.5,4.5-2,8.8-6.6,11.4c1.3-4.4,1-9.2-0.8-13.5c-3-6.8-12.8-12.7-25.7-13.7
			s-22.8-7-27.9-9.7c-4-2.1-12.6-6.7-16.1-8.6l3.8-6l9.9,2.2c0,0,8.2,4.7,16.5,8.4s28.3,4.5,35.4,10.2S237.1,365.3,236.3,372.7z"/>
		<path id="Path_4887" class="st11" d="M151.2,365c19.4,11.3,40.9,18.6,63.1,21.6c4.9,0.6,10.6,0.7,13.9-3c1.8-2.2,2.6-4.9,2.3-7.7
			c-0.6-6.9-6.4-12.4-12.8-15.2s-13.4-3.4-20.2-4.9c-6.8-1.5-13.3-3.9-19.4-7.1c-4.9-2.5-9.6-5.6-15-6.8s-11.8,0.2-14.7,4.9"/>
		<path id="Path_4888" class="st11" d="M226.5,385.5c5.1-2.5,8.8-7.2,9.9-12.7c1-6.5-2.7-13.1-8-17.1s-11.8-5.9-18.2-7.2
			s-13.1-2.2-19.3-4.7c-9.4-3.7-18.8-11-28.6-8.4"/>
		<path id="Path_4889" class="st0" d="M181.7,131.6L136,114.2l-0.6-0.2c0,0,0.2-1.2,0.3-3c0.3-3.6,0.4-9.6-1.3-11.6
			c-2.5-3-9.8-0.5-16.8-3.7s-20,2.5-20,2.5s-9.4-1.7-13.6,5c-2.1,5.5-1.4,13.6-1.4,13.6l-0.9,0.3c-5.4,2-35,13.2-41.3,17.6
			c-6.9,4.9-14.6,55.2-17,70s-6.8,28.1-4.6,33.2s34,29.6,52.3,35.9s83.2,4.5,83.2,4.5s1.1-0.3,2.9-0.9c11-3.5,49.9-18.1,70.6-52.3
			C227.9,225.2,207.9,159.6,181.7,131.6z M58.3,216.2c-3.4,2.4-1.5,11.6-1.5,11.6l-5.7-5l14.3-35.3l6.1,27.1
			C71.6,214.6,61.7,213.8,58.3,216.2z M173.1,238.6c-1.6,0.8,4.5-16.1,1.6-20s-11.6-3.5-11.6-3.5l0.7-4.6L169,184l1.7-2
			c0,0,17.8,30.4,20.9,41.2C191.7,223.1,172.3,238.6,173.1,238.6L173.1,238.6z"/>
		<path id="Path_4890" class="st12" d="M95.5,21.6l-23.6,25c0,0-3.2,2.9-2,10.1s4.3,13.6,6.6,14c1.8,0.3,3.6,0.5,5.5,0.5
			c0,0,5,10.9,8.6,15.2c0,0,1.2,16.9,0.6,21.6c0,0,8.5,7.4,16.4,8.3s20.3-11.3,20.3-11.3l3-14.9c0,0,7.2-11,7.7-13.9
			s3.8-2.2,5.4-3.6s5.4-7.9,6-14s0.7-13.1-6.4-11c-6.1-1.6-2.3-14.6-2.3-14.6l-10.8-9.5L95.5,21.6z"/>
		<path id="Path_4891" class="st3" d="M136,114.2c-0.4,0.9-0.8,1.8-1.2,2.7c-3.9,7.3-20.8,21.3-20.8,21.3l-5.1-15.7l-2.8,15.7
			c-5.7-2.5-22.9-17.4-22.9-17.4s-0.6-1.4-1.3-3.6l0.9-0.3c0,0-0.7-8.2,1.4-13.6c4.1-6.8,13.6-5,13.6-5s13-5.8,20-2.5
			s14.2,0.7,16.8,3.7s1,14.6,1,14.6L136,114.2z"/>
		<path id="Path_4892" class="st9" d="M181.7,131.6L136,114.2l-0.6-0.2c0,0,0.2-1.2,0.3-3l-0.9,5.9l-6.8,9.2
			c7.2,2.7,14.3,5.8,21.1,9.3c6.7,3.6,10.5,10.9,9.6,18.4l-8.4,72l-3.5,40.9l10.4,10.8c11-3.5,49.9-18.1,70.6-52.3
			C227.9,225.2,207.9,159.6,181.7,131.6z M173.1,238.6c-1.6,0.8,4.5-16.1,1.6-20s-11.6-3.5-11.6-3.5l0.7-4.6L169,184l1.7-2
			c0,0,17.8,30.4,20.9,41.2C191.7,223.1,172.3,238.6,173.1,238.6L173.1,238.6z"/>
		<path id="Path_4893" class="st9" d="M74.6,218.6l-7.1-23.7c0,0-12.7-43.4-21.5-54.1l2.3,30.5c0,0-7.5,36.5-14.4,47.3
			s-8.4,13.6,0,13.6s28.9,16.3,28.9,16.3l-1.6-13.6L74.6,218.6z M56.7,227.8l-5.7-5l14.3-35.3l6.1,27.1c0,0-9.8-0.7-13.2,1.6
			S56.7,227.8,56.7,227.8L56.7,227.8z"/>
		<path id="Path_4894" class="st11" d="M90.6,86.4c0,0,1.3,12.8,0,18.6"/>
		<path id="Path_4895" class="st11" d="M129.2,103.3c0-4.1,0.5-8.2,1.4-12.2"/>
		<path id="Path_4896" class="st11" d="M132.6,31.1c0,0,7.7,9.7,7.3,17.1s-1,16.1-0.8,24.6s-13.7,26.4-20.8,28s-13.3,2-17.9-2.6
			s-9.1-10.9-15.1-19s-4.5-26-4.5-26"/>
		<path id="Path_4897" class="st11" d="M114,59.9c-0.5,2.7-0.7,5.4-0.6,8.1c-0.2,2.3,0.6,4.5,2,6.3c0.9,0.9,2.1,1.6,2.3,2.8
			c0,1.1-0.6,2.1-1.6,2.6c-1,0.5-1.9,1-2.8,1.7"/>
		<path id="Path_4898" class="st11" d="M101.7,82.4c0,0,0.9,5.8,8.6,7"/>
		<path id="Path_4899" class="st5" d="M102.5,64.3c0,1.7-0.7,3-1.6,3s-1.6-1.3-1.6-3s0.7-3,1.6-3S102.5,62.7,102.5,64.3z"/>
		<path id="Path_4900" class="st5" d="M125.6,65.1c0,1.7-0.7,3-1.6,3s-1.6-1.4-1.6-3s0.7-3,1.6-3S125.6,63.4,125.6,65.1z"/>
		<path id="Path_4901" class="st13" d="M120.9,57.8c0,0,7.5-7.5,13.8,0.9"/>
		<path id="Path_4902" class="st13" d="M105.1,57.9c0,0-4.8-5.3-12.3,0"/>
		<path id="Path_4903" class="st5" d="M91.2,93.5c0,0,4.6,12.7,14.9,16.3s23.9-15.1,23.9-15.1l-0.7-2.4c0,0-8.9,11.6-18.9,9.6
			S90.6,86.5,90.6,86.5L91.2,93.5z"/>
		<path id="Path_4904" class="st11" d="M82,70.7c0,0-6.1,2.2-7.7-2.6S67,50.8,71.9,46.6s8.8,5.5,8.8,5.5"/>
		<path id="Path_4905" class="st11" d="M139.2,73.3c0,0,5.7,1.1,7.3-3.6s7.2-17.3,2.3-21.5s-8.8,5.5-8.8,5.5"/>
		<path id="Path_4906" class="st5" d="M80.7,64.3c2.1-0.3,4-1.5,5.4-3.2c0.8-1.5,1.3-3.1,1.5-4.8c0.6-3.2,0.8-6.4,0.8-9.7
			c-0.1-1.3,0.1-2.5,0.3-3.8c0.5-1.2,1.1-2.4,2-3.4c2.1-2.5,4.7-4.6,6.7-7.2c2.2-2.5,3.3-5.7,3-9c9.4,7.8,21.8,11,33.9,8.8
			c10.8-2.1,21.1-11.6,19.8-23.4c-0.5-4.1-3.5-7.4-7.5-8.3c-5.3-1.3-10.1,1.5-14.9,3.3C123,7,114.4,1.3,105.6,0.4
			C98-0.5,88.6,0.5,84.7,8c0,0-13.6,1.6-19.6,12.8s5.4,26.7,5.4,26.7S75,42,80.9,53.2L80.7,64.3z"/>
		<path id="Path_4907" class="st5" d="M133.6,28.3c0,0-3.5,18.4,5.7,27.3c0,0,2-5.5,4.1-6.9c3-6.6,2.4-14.3-1.6-20.4
			C134.9,17.6,133.6,28.3,133.6,28.3z"/>
		<path id="Path_4908" class="st14" d="M150.4,7.3c-1.6,5.1-5.5,9.1-10.5,11c-12.8,5.2-25.2-0.6-38-1.7c-10.4-0.9-22,8.5-22.7,19.2"
			/>
		<path id="Path_4909" class="st14" d="M71.2,33c0.3-8.6,5.6-16.3,13.6-19.7"/>
		<path id="Path_4910" class="st11" d="M87.7,103.3c5.6,5.9,12.4,10.5,19.9,13.6c0,0,15.3-4.4,23.1-15.1"/>
		<circle id="Ellipse_69" class="st11" cx="97.7" cy="64.3" r="13.5"/>
		<circle id="Ellipse_70" class="st11" cx="127.9" cy="64.4" r="13.5"/>
		<path id="Path_4911" class="st11" d="M90.6,98.3c-2.8,0.7-5.1,2.5-6.5,5c-2.4,4.2-0.9,17.5-0.9,17.5s12.4,12.2,22.9,17.4l3.1-17.5
			l4.8,17.5c0,0,16.3-11.5,20.8-21.3c0,0,1.5-11.4,0-15.1c-0.7-2.1-2.7-3.5-4.9-3.6"/>
		<path id="Path_4912" class="st11" d="M71.2,215.1c0,0-4.8-32.4-11.3-45.6"/>
		<path id="Path_4913" class="st11" d="M46.1,140.8c3.7,5.3,7.1,10.9,10,16.7"/>
		<path id="Path_4914" class="st11" d="M173.1,165c1.3-5.4,3.1-10.7,5.3-15.8"/>
		<path id="Path_4915" class="st11" d="M163.1,215.1c0,0,3.5-22.2,7.6-40.5"/>
		<path id="Path_4916" class="st11" d="M169,183.9c3.4-4.5,8.1-7.7,13.5-9.2"/>
		<path id="Path_4917" class="st11" d="M135.5,114c0,0,28.1,11.2,46.2,17.6c0,0,22.3,21,46.2,93.6c0,0-21.9,36.9-63.6,48.7"/>
		<path id="Path_4918" class="st11" d="M171.5,239.9l20.1-16.8c0,0,10.7-8.1,21.7-2.6"/>
		<path id="Path_4919" class="st11" d="M170.8,181.9c0,0,16.7,24.6,20.9,41.2"/>
		<path id="Path_4920" class="st11" d="M57,228.7l-5.9-5.6c0,0-8.7-1.5-18.7,5.1"/>
		<path id="Path_4921" class="st11" d="M51.1,223.1c0,0,7.3-24.1,14.5-36.5"/>
		<path id="Path_4922" class="st11" d="M82.7,117c0,0-40.4,15.2-44.4,19.6s-19,89.2-19.4,98.9c-0.3,8.7,31.1,28.2,46.7,36.4"/>
		<path id="Path_4923" class="st5" d="M112.9,145.6c0,1.5-1.2,2.6-2.7,2.6c-1.5,0-2.6-1.2-2.6-2.7c0-1.5,1.2-2.6,2.7-2.6
			c0.7,0,1.4,0.3,1.9,0.8C112.7,144.2,112.9,144.9,112.9,145.6z"/>
		<path id="Path_4924" class="st5" d="M159.7,287.6H67.8c-1.2,0-2.2-1-2.2-2.2l0,0c0-1.2,1-2.2,2.2-2.2h91.9c1.2,0,2.2,1,2.2,2.2
			l0,0C161.8,286.6,160.9,287.6,159.7,287.6z"/>
		<path id="Path_4925" class="st4" d="M162.9,280.4l12.3-57.9c0.7-3.3-1.4-6.6-4.7-7.3c-0.4-0.1-0.9-0.1-1.3-0.1H61.7
			c-3.4,0-6.1,2.8-6.1,6.1c0,0.4,0,0.8,0.1,1.2l11,55.9c0.6,2.8,3,4.9,5.9,5l84.1,1.9C159.7,285.3,162.3,283.3,162.9,280.4
			L162.9,280.4z"/>
		<path id="Path_4926" class="st5" d="M123.7,248.5c0,4.7-3.9,8.6-8.6,8.6c-4.7,0-8.6-3.9-8.6-8.6c0-4.7,3.9-8.6,8.6-8.6
			c2.3,0,4.4,0.9,6.1,2.5C122.8,244,123.7,246.2,123.7,248.5z"/>
		<line id="Line_32" class="st11" x1="140.6" y1="220.6" x2="153.3" y2="220.6"/>
		<line id="Line_33" class="st11" x1="79.6" y1="220.6" x2="128" y2="220.6"/>
		<path id="Path_4927" class="st5" d="M163.1,341.8l-9.8,25.7c0,0-25-6.3-57-12.9c-33.5-6.9-68.4-15.7-86.5-47.5
			c-2.2-3.9-3.7-8.5-2.6-12.8c2.6-11,16.9-14,26.3-15.1c5.9-0.6,11.9-1,17.8-1c3,0,13-1.6,15.5,0.2c3.6,2.7,7.5,5,11.6,6.9
			c5.4,2.3,83.4-2,83.4-2c1.4-3,2.2-6.1,2.5-9.4c12.3-6.2,40.7-11.5,52.7-9.2c18.9,3.7,29.9,14.7,27.8,26.2S201,333.4,163.1,341.8z"
			/>
		<path id="Path_4928" class="st15" d="M163.1,341.8c0,0-23.8-6.3-43.2-19.4s-34.6-28.3-61.6-25.2"/>
		<path id="Path_4929" class="st15" d="M115.5,319.3c12.3-3.5,21.3-11.5,31.1-19.1c10.4-8.3,21.5-15.7,33.3-21.9"/>
		<line id="Line_34" class="st11" x1="111.2" y1="66.5" x2="114.8" y2="66.5"/>
	</g>
</g>
</svg>
